<svg width="50" height="50" viewBox="0 0 50 50" fill="none" xmlns="http://www.w3.org/2000/svg">
<circle cx="25" cy="25" r="25" fill="#CDE1F0"/>
<path d="M26.3451 10.8553L29.3764 16.9972C29.7405 17.7351 30.4444 18.2465 31.2587 18.3648L38.0368 19.3498C39.2671 19.5285 39.7584 21.0405 38.8681 21.9083L33.9634 26.6892C33.3742 27.2635 33.1054 28.091 33.2444 28.902L34.4023 35.6527C34.6125 36.8781 33.3263 37.8125 32.2259 37.234L26.1634 34.0467C25.435 33.6638 24.565 33.6638 23.8366 34.0467L17.7741 37.234C16.6737 37.8125 15.3875 36.8781 15.5977 35.6527L16.7556 28.902C16.8946 28.091 16.6258 27.2635 16.0366 26.6892L11.1319 21.9083C10.2416 21.0405 10.7329 19.5285 11.9632 19.3498L18.7413 18.3648C19.5556 18.2465 20.2595 17.7351 20.6236 16.9972L23.6549 10.8553C24.2051 9.74038 25.7949 9.74038 26.3451 10.8553Z" fill="#FFCDCD" stroke="white"/>
</svg>
