<?xml version="1.0" standalone="no"?><!DOCTYPE svg PUBLIC "-//W3C//DTD SVG 1.1//EN" "http://www.w3.org/Graphics/SVG/1.1/DTD/svg11.dtd"><svg t="1711939636008" class="icon" viewBox="0 0 1024 1024" version="1.1" xmlns="http://www.w3.org/2000/svg" p-id="889" xmlns:xlink="http://www.w3.org/1999/xlink" width="200" height="200"><path d="M505.164882 0.445105a514.582231 514.582231 0 0 0-343.996244 132.740751L169.641451 56.930531a46.882904 46.882904 0 0 0-41.234361-56.485426 46.882904 46.882904 0 0 0-53.0963 41.799215L49.892348 257.453794a48.012612 48.012612 0 0 0 10.732231 36.715527 46.882904 46.882904 0 0 0 33.891256 16.945627l214.644619 12.426794A48.012612 48.012612 0 0 0 314.808996 226.386809L226.126878 222.43283A404.43565 404.43565 0 0 1 909.600533 508.81394a405.000505 405.000505 0 0 1-802.657904 70.041928 56.485426 56.485426 0 0 0-106.757456 18.64019A511.75796 511.75796 0 1 0 505.164882 0.445105z" p-id="890"></path><path d="M672.361743 508.81394A163.807736 163.807736 0 1 0 508.554008 670.362258 163.807736 163.807736 0 0 0 672.361743 508.81394zM435.122954 508.81394A73.431054 73.431054 0 1 1 508.554008 579.985576 73.431054 73.431054 0 0 1 435.122954 508.81394z" p-id="891"></path></svg>